<?xml version="1.0" encoding="utf-8"?>
<!-- Generator: Adobe Illustrator 28.4.1, SVG Export Plug-In . SVG Version: 6.00 Build 0)  -->
<svg version="1.1" id="Livello_1" xmlns="http://www.w3.org/2000/svg" xmlns:xlink="http://www.w3.org/1999/xlink" x="0px" y="0px"
	 viewBox="0 0 163.4 170.6" style="enable-background:new 0 0 163.4 170.6;" xml:space="preserve">
<style type="text/css">
	.st0{fill:#EA5658;stroke:#EA5658;stroke-width:5;stroke-miterlimit:10;}
</style>
<g>
	<path class="st0" d="M72.7,6.3c-3.6,2-29.4,15.6-64.8,34.5c-0.5,0.3-1.6,1.1-2.3,2.4c-0.9,1.5-0.9,2.9-0.9,3.5v75.8
		c0,0.8,0.1,2.6,1.3,4.4c0.8,1.2,1.8,2,2.4,2.4c21.5,11.7,43,23.5,64.5,35.2c0.7,0.4,2.3,1.1,4.4,1.1c2.3,0,3.9-0.8,4.6-1.3
		c21.6-11.8,43.1-23.6,64.7-35.4c0.7-0.4,2.2-1.4,3.3-3.4c0.8-1.5,0.9-2.9,0.9-3.7c-0.1-18.7-0.1-37.4-0.2-56.1
		c0.2-1.9-1.2-3.6-2.9-3.7c-1.7-0.1-3.4,1.5-3.3,3.6c-0.1,19.2-0.2,38.4-0.2,57.6c-21.2,11.6-42.4,23.3-63.6,34.9
		c0-16.1-0.1-31.8-0.1-47.9c-2.4,0.7-4.7,1.9-6.3,6.3c0,13.8,0,27.7-0.1,41.5c-21.1-11.5-42.2-23-63.3-34.6l0.2-73
		c21.1,11.2,42.1,22.5,63.2,33.7c0,4.5,0,27.9,0,32.4c2-1.9,4.3-4.3,6.3-6.3c0-2.6-0.2-23.5-0.2-26.1c8-4.7,16.1-9.4,24.1-14.1
		c1-1.2,1.1-2.8,0.3-4.1c-0.8-1.3-2.5-1.9-4-1.4c-7.8,4.6-15.6,9.3-23.4,14c-21-11.4-42-22.8-63.1-34.1
		c21.2-11.2,42.3-22.4,63.5-33.7c11.4,6.1,22.8,12.1,34.1,18.2c1.5,0.6,3.1,0.1,3.9-1c1-1.4,0.5-3.6-1.2-4.6
		C103.9,17.6,93.2,11.8,82.6,6c-0.8-0.4-2.6-1.2-4.9-1.1C75.2,4.9,73.3,6,72.7,6.3L72.7,6.3z"/>
	<path class="st0" d="M151.8,32.4l0,16.3c-0.1,1.8,1.3,3.3,3,3.3c1.6,0.1,3-1.2,3.2-2.9l0-24.2c0-0.3,0.1-1.7-0.9-3
		c-1.3-1.6-3.1-1.6-3.4-1.6c-8.3,0.1-16.6,0.2-24.9,0.3c-0.6,0-1.1,0.2-1.6,0.6c-0.7,0.6-1.1,1.4-1.1,2.3l0,0c0,1,0.4,1.9,1.1,2.5
		c0.4,0.4,1,0.6,1.6,0.6l17.9,0c4.3-0.1,1.2-0.2,1.7-0.6c0,0-25.5,19.4-26.3,20c-1.5,1.2-1.6,3.4-0.4,4.7c1.1,1.1,2.9,1.3,4.3,0.3
		L151.8,32.4z"/>
</g>
</svg>
